name analog
datacolumns 19
datarows 63
range 0.0 0.031
endheader
time	ground_force_vx	ground_force_vy	ground_force_vz	ground_force_px	ground_force_py	ground_force_pz	l_ground_force_vx	l_ground_force_vy	l_ground_force_vz	l_ground_force_px	l_ground_force_py	l_ground_force_pz	ground_torque_x	ground_torque_y	ground_torque_z	l_ground_torque_x	l_ground_torque_y	l_ground_torque_z
0.0	-0.0	-0.0	-0.0	-0.0	-0.0	-0.0	0.0515332370996475	2.4160807132720947	-766.2525634765625	-0.0	-0.0	-0.0	-0.0	-0.0	-0.0	223417.3125	-5118.7236328125	-1067.2550048828125
0.0005	-0.0	-0.0	-0.0	-0.0	-0.0	-0.0	0.5322647094726562	2.965810775756836	-767.2210083007812	-0.0	-0.0	-0.0	-0.0	-0.0	-0.0	223862.453125	-5219.4306640625	-948.117431640625
0.001	-0.0	-0.0	-0.0	-0.0	-0.0	-0.0	0.6038628816604614	3.675435781478882	-768.9666137695312	-0.0	-0.0	-0.0	-0.0	-0.0	-0.0	224550.625	-5369.11083984375	-824.5603637695312
0.0015	-0.0	-0.0	-0.0	-0.0	-0.0	-0.0	0.7950619459152222	4.55540657043457	-769.9464721679688	-0.0	-0.0	-0.0	-0.0	-0.0	-0.0	224830.25	-5195.068359375	-474.0173645019531
0.002	-0.0	-0.0	-0.0	-0.0	-0.0	-0.0	1.3171466588974	4.993396282196045	-771.7592163085938	-0.0	-0.0	-0.0	-0.0	-0.0	-0.0	225249.140625	-5223.98486328125	-301.3104553222656
0.0025	-0.0	-0.0	-0.0	-0.0	-0.0	-0.0	0.8154070973396301	5.526750564575195	-771.0606689453125	-0.0	-0.0	-0.0	-0.0	-0.0	-0.0	225625.328125	-5238.40576171875	-264.9926452636719
0.003	-0.0	-0.0	-0.0	-0.0	-0.0	-0.0	0.2831048965454101	6.594161510467529	-771.4915161132812	-0.0	-0.0	-0.0	-0.0	-0.0	-0.0	225657.890625	-5129.1015625	-140.7684783935547
0.0035	-0.0	-0.0	-0.0	-0.0	-0.0	-0.0	0.1983921527862548	7.242378234863281	-772.1075439453125	-0.0	-0.0	-0.0	-0.0	-0.0	-0.0	225792.265625	-5097.6923828125	-231.0182037353516
0.004	-0.0	-0.0	-0.0	-0.0	-0.0	-0.0	0.0507002174854278	7.646142959594727	-772.4564208984375	-0.0	-0.0	-0.0	-0.0	-0.0	-0.0	225996.40625	-5244.255859375	-99.72430419921876
0.0045000000000000005	-0.0	-0.0	-0.0	-0.0	-0.0	-0.0	0.4223361611366272	8.68912410736084	-773.503662109375	-0.0	-0.0	-0.0	-0.0	-0.0	-0.0	226351.328125	-5306.5380859375	60.38272476196289
0.005	-0.0	-0.0	-0.0	-0.0	-0.0	-0.0	1.7191764116287231	9.66510009765625	-772.3896484375	-0.0	-0.0	-0.0	-0.0	-0.0	-0.0	226189.65625	-5514.93212890625	370.905517578125
0.0055	-0.0	-0.0	-0.0	-0.0	-0.0	-0.0	1.8030928373336792	9.887330055236816	-771.6912231445312	-0.0	-0.0	-0.0	-0.0	-0.0	-0.0	225566.703125	-5659.884765625	626.738525390625
0.006	-0.0	-0.0	-0.0	-0.0	-0.0	-0.0	1.7790734767913818	10.19522476196289	-770.3135986328125	-0.0	-0.0	-0.0	-0.0	-0.0	-0.0	225445.140625	-5337.673828125	561.8636474609375
0.006500000000000001	-0.0	-0.0	-0.0	-0.0	-0.0	-0.0	0.6260206699371338	10.090354919433594	-769.6158447265625	-0.0	-0.0	-0.0	-0.0	-0.0	-0.0	225016.953125	-5194.19970703125	229.1296844482422
0.007	-0.0	-0.0	-0.0	-0.0	-0.0	-0.0	-0.5541929602622986	9.63227367401123	-767.4803466796875	-0.0	-0.0	-0.0	-0.0	-0.0	-0.0	224880.0625	-4769.39599609375	-127.76942443847656
0.0075	-0.0	-0.0	-0.0	-0.0	-0.0	-0.0	-1.0091546773910522	9.85883903503418	-767.2828979492188	-0.0	-0.0	-0.0	-0.0	-0.0	-0.0	224549.671875	-4536.55029296875	-378.2724609375
0.008	-0.0	-0.0	-0.0	-0.0	-0.0	-0.0	-1.5247138738632202	9.89202880859375	-770.7958374023438	-0.0	-0.0	-0.0	-0.0	-0.0	-0.0	224740.078125	-4316.8779296875	-602.9747924804688
0.0085	-0.0	-0.0	-0.0	-0.0	-0.0	-0.0	-1.7352839708328247	10.101712226867676	-771.6904296875	-0.0	-0.0	-0.0	-0.0	-0.0	-0.0	225021.8125	-4448.25927734375	-905.2351684570312
0.009000000000000001	-0.0	-0.0	-0.0	-0.0	-0.0	-0.0	-1.9906518459320068	11.194503784179688	-773.3056640625	-0.0	-0.0	-0.0	-0.0	-0.0	-0.0	225858.375	-4821.84814453125	-1007.1497192382812
0.0095	-0.0	-0.0	-0.0	-0.0	-0.0	-0.0	-0.9427627921104432	12.28712558746338	-776.6671752929688	-0.0	-0.0	-0.0	-0.0	-0.0	-0.0	225746.75	-5148.52978515625	-970.9360961914062
0.01	-0.0	-0.0	-0.0	-0.0	-0.0	-0.0	-0.2496419250965118	13.866504669189451	-778.5185546875	-0.0	-0.0	-0.0	-0.0	-0.0	-0.0	225829.65625	-5967.3984375	-823.8271484375
0.0105	-0.0	-0.0	-0.0	-0.0	-0.0	-0.0	0.631041407585144	13.872873306274414	-781.4661865234375	-0.0	-0.0	-0.0	-0.0	-0.0	-0.0	225604.078125	-6568.5693359375	-704.5985717773438
0.011	-0.0	-0.0	-0.0	-0.0	-0.0	-0.0	1.8465012311935425	12.155686378479004	-781.9056396484375	-0.0	-0.0	-0.0	-0.0	-0.0	-0.0	225332.5	-7531.0009765625	-294.4413757324219
0.0115	-0.0	-0.0	-0.0	-0.0	-0.0	-0.0	2.4675142765045166	10.196368217468262	-782.44873046875	-0.0	-0.0	-0.0	-0.0	-0.0	-0.0	224575.859375	-8205.3857421875	-49.503379821777344
0.012	-0.0	-0.0	-0.0	-0.0	-0.0	-0.0	2.451197624206543	7.818708419799805	-779.4624633789062	-0.0	-0.0	-0.0	-0.0	-0.0	-0.0	223341.5	-8249.9619140625	127.85340881347656
0.0125	-0.0	-0.0	-0.0	-0.0	-0.0	-0.0	2.112736225128174	5.620085716247559	-775.1165771484375	-0.0	-0.0	-0.0	-0.0	-0.0	-0.0	221271.171875	-8295.7841796875	16.21967315673828
0.013000000000000001	-0.0	-0.0	-0.0	-0.0	-0.0	-0.0	1.1043846607208252	3.612228155136109	-773.1785278320312	-0.0	-0.0	-0.0	-0.0	-0.0	-0.0	219256.296875	-8388.8486328125	-138.7356719970703
0.0135	-0.0	-0.0	-0.0	-0.0	-0.0	-0.0	0.8146447539329529	1.7974891662597656	-770.513671875	-0.0	-0.0	-0.0	-0.0	-0.0	-0.0	217716.609375	-8394.94140625	-497.8196411132813
0.014	-0.0	-0.0	-0.0	-0.0	-0.0	-0.0	0.2985791563987732	0.0398649498820304	-767.2776489257812	-0.0	-0.0	-0.0	-0.0	-0.0	-0.0	216256.953125	-8503.796875	-646.96142578125
0.0145	-0.0	-0.0	-0.0	-0.0	-0.0	-0.0	0.2900994718074798	-2.18418025970459	-765.6564331054688	-0.0	-0.0	-0.0	-0.0	-0.0	-0.0	215280.828125	-8288.138671875	-771.6134643554688
0.015	-0.0	-0.0	-0.0	-0.0	-0.0	-0.0	0.2902494072914123	-4.520483493804932	-765.4352416992188	-0.0	-0.0	-0.0	-0.0	-0.0	-0.0	214089.84375	-8441.376953125	-615.8220825195312
0.0155	-0.0	-0.0	-0.0	-0.0	-0.0	-0.0	0.5563997626304626	-6.463533401489258	-765.721435546875	-0.0	-0.0	-0.0	-0.0	-0.0	-0.0	213963.375	-8754.4052734375	-575.6441040039062
0.016	-0.0	-0.0	-0.0	-0.0	-0.0	-0.0	0.991901993751526	-7.764050483703613	-765.912109375	-0.0	-0.0	-0.0	-0.0	-0.0	-0.0	213561.234375	-8809.8232421875	-556.7318115234375
0.0165	-0.0	-0.0	-0.0	-0.0	-0.0	-0.0	1.153240203857422	-8.623574256896973	-767.2755126953125	-0.0	-0.0	-0.0	-0.0	-0.0	-0.0	213297.203125	-8847.7763671875	-419.19622802734375
0.017	-0.0	-0.0	-0.0	-0.0	-0.0	-0.0	1.6768851280212402	-8.422455787658691	-767.6244506835938	-0.0	-0.0	-0.0	-0.0	-0.0	-0.0	213124.75	-9236.3876953125	-483.81005859375
0.0175	-0.0	-0.0	-0.0	-0.0	-0.0	-0.0	2.70926570892334	-7.851861476898193	-770.039794921875	-0.0	-0.0	-0.0	-0.0	-0.0	-0.0	213863.359375	-9442.7158203125	-242.72366333007807
0.018000000000000002	-0.0	-0.0	-0.0	-0.0	-0.0	-0.0	3.4028961658477783	-8.279447555541992	-772.8607177734375	-0.0	-0.0	-0.0	-0.0	-0.0	-0.0	214134.5625	-9853.8388671875	-97.01395416259766
0.0185	-0.0	-0.0	-0.0	-0.0	-0.0	-0.0	4.606178283691406	-7.41226863861084	-776.2266845703125	-0.0	-0.0	-0.0	-0.0	-0.0	-0.0	215001.390625	-10108.619140625	-38.914886474609375
0.019	-0.0	-0.0	-0.0	-0.0	-0.0	-0.0	4.758625984191895	-6.8574748039245605	-778.4464111328125	-0.0	-0.0	-0.0	-0.0	-0.0	-0.0	215337.78125	-10444.28515625	69.39671325683594
0.0195	-0.0	-0.0	-0.0	-0.0	-0.0	-0.0	5.218095779418945	-6.986879348754883	-782.26171875	-0.0	-0.0	-0.0	-0.0	-0.0	-0.0	215670.546875	-10353.576171875	133.30416870117188
0.02	-0.0	-0.0	-0.0	-0.0	-0.0	-0.0	4.920389175415039	-6.816505432128906	-781.6502075195312	-0.0	-0.0	-0.0	-0.0	-0.0	-0.0	216094.5	-10445.0341796875	50.52606201171875
0.0205	-0.0	-0.0	-0.0	-0.0	-0.0	-0.0	4.993412494659424	-6.52988862991333	-782.922119140625	-0.0	-0.0	-0.0	-0.0	-0.0	-0.0	216103.03125	-10102.0234375	-24.48319625854492
0.021	-0.0	-0.0	-0.0	-0.0	-0.0	-0.0	4.790382385253906	-6.078527450561523	-782.9612426757812	-0.0	-0.0	-0.0	-0.0	-0.0	-0.0	216077.984375	-10075.7333984375	-109.6186752319336
0.021500000000000002	-0.0	-0.0	-0.0	-0.0	-0.0	-0.0	4.435539245605469	-5.6994829177856445	-784.0307006835938	-0.0	-0.0	-0.0	-0.0	-0.0	-0.0	216022.671875	-9715.1376953125	-254.76927185058597
0.022	-0.0	-0.0	-0.0	-0.0	-0.0	-0.0	4.84774112701416	-6.270839691162109	-783.61962890625	-0.0	-0.0	-0.0	-0.0	-0.0	-0.0	216228.6875	-9490.630859375	-151.7072296142578
0.0225	-0.0	-0.0	-0.0	-0.0	-0.0	-0.0	4.195563316345215	-6.374731540679932	-786.3509521484375	-0.0	-0.0	-0.0	-0.0	-0.0	-0.0	216279.15625	-9135.9228515625	-314.4808959960937
0.023	-0.0	-0.0	-0.0	-0.0	-0.0	-0.0	3.741454124450684	-7.034669399261475	-787.563232421875	-0.0	-0.0	-0.0	-0.0	-0.0	-0.0	216305.015625	-8869.9365234375	-454.520263671875
0.0235	-0.0	-0.0	-0.0	-0.0	-0.0	-0.0	3.2355785369873047	-7.06573486328125	-786.4120483398438	-0.0	-0.0	-0.0	-0.0	-0.0	-0.0	216398.75	-8569.6474609375	-580.3150024414062
0.024	-0.0	-0.0	-0.0	-0.0	-0.0	-0.0	3.1093828678131104	-6.972927570343018	-788.5678100585938	-0.0	-0.0	-0.0	-0.0	-0.0	-0.0	216398.421875	-8469.9462890625	-559.4879150390625
0.0245	-0.0	-0.0	-0.0	-0.0	-0.0	-0.0	3.4597206115722656	-5.886692047119141	-790.4182739257812	-0.0	-0.0	-0.0	-0.0	-0.0	-0.0	216927.1875	-8290.2998046875	-410.58001708984375
0.025	-0.0	-0.0	-0.0	-0.0	-0.0	-0.0	3.961043357849121	-5.518056869506836	-791.4049682617188	-0.0	-0.0	-0.0	-0.0	-0.0	-0.0	217338.21875	-8343.669921875	-442.1690979003906
0.025500000000000002	-0.0	-0.0	-0.0	-0.0	-0.0	-0.0	4.138539791107178	-4.669556617736816	-791.3598022460938	-0.0	-0.0	-0.0	-0.0	-0.0	-0.0	217380.25	-8101.2265625	-364.5328369140625
0.026000000000000002	-0.0	-0.0	-0.0	-0.0	-0.0	-0.0	4.551376819610596	-4.431412696838379	-791.1776123046875	-0.0	-0.0	-0.0	-0.0	-0.0	-0.0	217464.5625	-8118.87841796875	-329.3413391113281
0.0265	-0.0	-0.0	-0.0	-0.0	-0.0	-0.0	4.276985168457031	-4.577426910400391	-790.9356689453125	-0.0	-0.0	-0.0	-0.0	-0.0	-0.0	217584.265625	-8238.0478515625	-230.29417419433597
0.027	-0.0	-0.0	-0.0	-0.0	-0.0	-0.0	5.19121789932251	-4.269968032836914	-788.5050659179688	-0.0	-0.0	-0.0	-0.0	-0.0	-0.0	217025.890625	-7907.42724609375	-180.50331115722656
0.0275	-0.0	-0.0	-0.0	-0.0	-0.0	-0.0	6.209754943847656	-4.135892868041992	-787.5175170898438	-0.0	-0.0	-0.0	-0.0	-0.0	-0.0	216851.515625	-7987.857421875	191.5780029296875
0.028	-0.0	-0.0	-0.0	-0.0	-0.0	-0.0	5.692747592926025	-4.342953205108643	-786.4584350585938	-0.0	-0.0	-0.0	-0.0	-0.0	-0.0	216477.53125	-7667.72802734375	86.83570098876953
0.0285	-0.0	-0.0	-0.0	-0.0	-0.0	-0.0	5.472270965576172	-3.974475860595703	-784.1241455078125	-0.0	-0.0	-0.0	-0.0	-0.0	-0.0	216061.359375	-7301.5595703125	62.21044158935547
0.029	-0.0	-0.0	-0.0	-0.0	-0.0	-0.0	4.970237731933594	-3.560692548751831	-783.7257690429688	-0.0	-0.0	-0.0	-0.0	-0.0	-0.0	216002.28125	-7096.85498046875	-41.45870590209961
0.029500000000000002	-0.0	-0.0	-0.0	-0.0	-0.0	-0.0	4.643267631530762	-3.310963630676269	-782.7979736328125	-0.0	-0.0	-0.0	-0.0	-0.0	-0.0	216010.453125	-6466.91064453125	-170.455810546875
0.03	-0.0	-0.0	-0.0	-0.0	-0.0	-0.0	4.480926036834717	-2.929678201675415	-783.1470947265625	-0.0	-0.0	-0.0	-0.0	-0.0	-0.0	216087.90625	-6271.51953125	-220.38250732421875
0.0305	-0.0	-0.0	-0.0	-0.0	-0.0	-0.0	4.422285556793213	-2.311389207839966	-783.54833984375	-0.0	-0.0	-0.0	-0.0	-0.0	-0.0	216010.5625	-5839.04541015625	-116.71273040771484
0.031	-0.0	-0.0	-0.0	-0.0	-0.0	-0.0	4.022093296051025	-2.03139877319336	-782.679443359375	-0.0	-0.0	-0.0	-0.0	-0.0	-0.0	215796.46875	-5647.39111328125	-214.8321533203125
